<svg width="158" height="50" viewBox="0 0 158 50" fill="none" xmlns="http://www.w3.org/2000/svg">
<path d="M153.062 49.6875H4.9375C2.22187 49.6875 0 47.4656 0 44.75V5.25C0 2.53437 2.22187 0.3125 4.9375 0.3125H153.062C155.778 0.3125 158 2.53437 158 5.25V44.75C158 47.4656 155.778 49.6875 153.062 49.6875Z" fill="black"/>
<path d="M33.328 24.7532C33.328 20.9266 36.5374 19.075 36.6609 18.9516C34.8093 16.3594 32.0937 15.9891 31.1062 15.8657C28.7609 15.6188 26.4155 17.2235 25.3046 17.2235C24.0702 17.2235 22.2187 15.8657 20.2437 15.8657C17.6515 15.8657 15.3062 17.3469 13.9484 19.6922C11.2327 24.3829 13.2077 31.2954 15.7999 35.1219C17.1577 36.9735 18.639 39.0719 20.614 38.9485C22.589 38.825 23.3296 37.7141 25.6749 37.7141C28.0202 37.7141 28.6374 38.9485 30.7359 38.9485C32.8343 38.9485 34.1921 37.0969 35.4265 35.2453C36.9077 33.1469 37.5249 31.0485 37.5249 30.925C37.4015 30.8016 33.328 29.3204 33.328 24.7532Z" fill="white"/>
<path d="M29.5015 13.3969C30.489 12.039 31.2296 10.3109 31.1062 8.45935C29.6249 8.58279 27.6499 9.44685 26.6624 10.8047C25.6749 11.9156 24.8109 13.7672 25.0577 15.4953C26.6624 15.6187 28.3906 14.6312 29.5015 13.3969Z" fill="white"/>
<path d="M61.4719 38.7016H58.7563L57.275 34.011H52.0906L50.7328 38.7016H48.1406L53.325 22.7781H56.5344L61.4719 38.7016ZM56.7812 32.036L55.4234 27.8391C55.3 27.4688 55.0531 26.3578 54.5594 24.8766C54.4359 25.4938 54.1891 26.6047 53.8188 27.8391L52.4609 32.036H56.7812Z" fill="white"/>
<path d="M74.6797 32.9C74.6797 34.875 74.1859 36.3563 73.075 37.5906C72.0875 38.5781 70.9766 39.0719 69.4953 39.0719C68.0141 39.0719 66.9031 38.5781 66.2859 37.4672V43.5156H63.6938V31.1719C63.6938 29.9375 63.6938 28.7031 63.5703 27.3453H65.7922L65.9156 29.1969C66.7797 27.8391 68.0141 27.0984 69.7422 27.0984C71.1 27.0984 72.2109 27.5922 73.075 28.7031C74.1859 29.6906 74.6797 31.0485 74.6797 32.9ZM72.0875 32.9C72.0875 31.7891 71.8406 30.8016 71.3469 30.1844C70.8531 29.4438 70.1125 29.0734 69.125 29.0734C68.5078 29.0734 67.8906 29.3203 67.3969 29.6906C66.9031 30.0609 66.5328 30.6781 66.4094 31.2953C66.2859 31.6656 66.2859 31.9125 66.2859 32.036V34.0109C66.2859 34.875 66.5328 35.4922 67.0266 36.1094C67.5203 36.7266 68.2609 36.9735 69.0016 36.9735C69.9891 36.9735 70.7297 36.6031 71.2234 35.8625C71.8406 35.1219 72.0875 34.1344 72.0875 32.9Z" fill="white"/>
<path d="M87.8877 32.9C87.8877 34.875 87.3939 36.3563 86.283 37.5906C85.2955 38.5781 84.1846 39.0719 82.7033 39.0719C81.2221 39.0719 80.1111 38.5781 79.4939 37.4672V43.5156H76.9018V31.1719C76.9018 29.9375 76.9018 28.7031 76.7783 27.3453H79.0002L79.1236 29.1969C79.9877 27.8391 81.2221 27.0984 82.9502 27.0984C84.308 27.0984 85.4189 27.5922 86.283 28.7031C87.3939 29.6906 87.8877 31.0485 87.8877 32.9ZM85.2955 32.9C85.2955 31.7891 85.0486 30.8016 84.5549 30.1844C84.0611 29.4438 83.3205 29.0734 82.333 29.0734C81.7158 29.0734 81.0986 29.3203 80.6049 29.6906C80.1111 30.0609 79.7408 30.6781 79.6174 31.2953C79.4939 31.6656 79.4939 31.9125 79.4939 32.036V34.0109C79.4939 34.875 79.7408 35.4922 80.2346 36.1094C80.7283 36.7266 81.4689 36.9735 82.2096 36.9735C83.1971 36.9735 83.9377 36.6031 84.4314 35.8625C85.0486 35.1219 85.2955 34.1344 85.2955 32.9Z" fill="white"/>
<path d="M102.7 34.2578C102.7 35.6156 102.206 36.7265 101.342 37.5906C100.354 38.5781 98.8732 38.9484 97.0217 38.9484C95.2936 38.9484 93.9357 38.5781 92.9482 37.9609L93.5654 35.8625C94.6764 36.4797 95.9107 36.85 97.2686 36.85C98.2561 36.85 98.9967 36.6031 99.4904 36.2328C99.9842 35.739 100.231 35.2453 100.231 34.5047C100.231 33.8875 99.9842 33.2703 99.6139 32.9C99.1201 32.4062 98.3795 32.0359 97.392 31.6656C94.5529 30.6781 93.1951 29.0734 93.1951 27.0984C93.1951 25.7406 93.6889 24.7531 94.6764 23.889C95.6639 23.025 96.8982 22.6547 98.6264 22.6547C100.108 22.6547 101.219 22.9015 102.206 23.3953L101.589 25.4937C100.725 25 99.7373 24.7531 98.5029 24.7531C97.6389 24.7531 96.8982 25 96.4045 25.3703C96.0342 25.7406 95.7873 26.2344 95.7873 26.8515C95.7873 27.4687 96.0342 27.9625 96.5279 28.4562C96.8982 28.8265 97.7623 29.1968 98.8732 29.6906C100.231 30.1843 101.219 30.925 101.959 31.6656C102.329 32.2828 102.7 33.1468 102.7 34.2578Z" fill="white"/>
<path d="M111.094 29.1969H108.254V34.7516C108.254 36.1094 108.748 36.85 109.736 36.85C110.23 36.85 110.6 36.85 110.847 36.7266L110.97 38.7016C110.476 38.9484 109.859 38.9484 108.995 38.9484C108.008 38.9484 107.144 38.7016 106.65 38.0844C106.033 37.4672 105.786 36.4797 105.786 34.9984V29.1969H104.058V27.2219H105.786V25.1234L108.254 24.3828V27.2219H111.094V29.1969Z" fill="white"/>
<path d="M123.808 32.9C123.808 34.6281 123.314 36.1094 122.327 37.2203C121.216 38.3312 119.858 38.9484 118.13 38.9484C116.402 38.9484 115.044 38.3312 114.056 37.2203C113.069 36.1094 112.575 34.7515 112.575 33.0234C112.575 31.2953 113.069 29.814 114.18 28.7031C115.167 27.5922 116.649 26.975 118.377 26.975C120.105 26.975 121.463 27.5922 122.45 28.7031C123.314 29.814 123.808 31.1719 123.808 32.9ZM121.092 33.0234C121.092 31.9125 120.846 31.0484 120.352 30.3078C119.858 29.4437 118.994 28.95 118.006 28.95C117.019 28.95 116.155 29.4437 115.661 30.3078C115.167 31.0484 114.921 32.0359 114.921 33.0234C114.921 34.1344 115.167 34.9984 115.661 35.739C116.155 36.6031 117.019 37.0968 118.006 37.0968C118.994 37.0968 119.735 36.6031 120.352 35.739C120.846 34.9984 121.092 34.0109 121.092 33.0234Z" fill="white"/>
<path d="M132.078 29.4437C131.831 29.4437 131.584 29.3203 131.214 29.3203C130.35 29.3203 129.609 29.6906 129.116 30.3078C128.745 30.925 128.498 31.6656 128.498 32.5297V38.5781H125.906V30.6781C125.906 29.3203 125.906 28.2094 125.783 27.0984H128.005L128.128 29.3203H128.251C128.498 28.5797 128.992 27.9625 129.486 27.4688C130.103 27.0984 130.72 26.8516 131.337 26.8516C131.584 26.8516 131.831 26.8516 131.955 26.8516V29.4437H132.078Z" fill="white"/>
<path d="M143.434 32.4062C143.434 32.9 143.434 33.2703 143.311 33.5172H135.658C135.658 34.6281 136.028 35.4922 136.769 36.1094C137.386 36.6031 138.25 36.9734 139.237 36.9734C140.348 36.9734 141.459 36.85 142.323 36.4797L142.694 38.2078C141.583 38.7015 140.348 38.9484 138.867 38.9484C137.139 38.9484 135.658 38.4547 134.67 37.3437C133.683 36.3562 133.189 34.875 133.189 33.1468C133.189 31.4187 133.683 29.9375 134.547 28.8265C135.534 27.5922 136.892 26.975 138.62 26.975C140.225 26.975 141.583 27.5922 142.323 28.8265C143.187 29.814 143.434 31.0484 143.434 32.4062ZM141.089 31.789C141.089 31.0484 140.966 30.4312 140.595 29.814C140.101 29.0734 139.484 28.7031 138.62 28.7031C137.756 28.7031 137.139 29.0734 136.645 29.6906C136.275 30.1844 136.028 30.925 135.905 31.6656H141.089V31.789Z" fill="white"/>
<path d="M56.0408 13.0266C56.0408 14.3844 55.6705 15.4953 54.8064 16.2359C54.0658 16.8531 52.9549 17.2234 51.4736 17.2234C50.733 17.2234 50.1158 17.2234 49.6221 17.1V9.44686C50.2393 9.32343 50.9799 9.32343 51.8439 9.32343C53.2018 9.32343 54.1893 9.5703 54.9299 10.1875C55.5471 10.8047 56.0408 11.7922 56.0408 13.0266ZM54.683 13.0266C54.683 12.1625 54.4361 11.4219 53.9424 10.9281C53.4486 10.4344 52.708 10.1875 51.8439 10.1875C51.4736 10.1875 51.1033 10.1875 50.8564 10.3109V16.1125C50.9799 16.1125 51.3502 16.1125 51.7205 16.1125C52.708 16.1125 53.4486 15.8656 53.9424 15.3719C54.4361 14.8781 54.683 14.0141 54.683 13.0266Z" fill="white"/>
<path d="M62.9531 14.261C62.9531 15.125 62.7063 15.8657 62.2125 16.3594C61.7188 16.9766 60.9781 17.2235 60.1141 17.2235C59.25 17.2235 58.6328 16.9766 58.1391 16.3594C57.6453 15.8657 57.3984 15.125 57.3984 14.261C57.3984 13.3969 57.6453 12.6563 58.1391 12.1625C58.6328 11.5453 59.3734 11.2985 60.2375 11.2985C61.1016 11.2985 61.7188 11.5453 62.2125 12.1625C62.7063 12.6563 62.9531 13.3969 62.9531 14.261ZM61.7188 14.261C61.7188 13.7672 61.5953 13.2735 61.3484 12.9032C61.1016 12.4094 60.7313 12.286 60.2375 12.286C59.7438 12.286 59.3734 12.5328 59.1266 12.9032C58.8797 13.2735 58.7563 13.7672 58.7563 14.261C58.7563 14.7547 58.8797 15.2485 59.1266 15.6188C59.3734 16.1125 59.7438 16.236 60.2375 16.236C60.7313 16.236 61.1016 15.9891 61.3484 15.4953C61.5953 15.2485 61.7188 14.7547 61.7188 14.261Z" fill="white"/>
<path d="M72.4578 11.4219L70.7297 17.1H69.6187L68.8781 14.6313C68.6312 14.0141 68.5078 13.3969 68.3844 12.7797C68.2609 13.3969 68.1375 14.0141 67.8906 14.6313L67.15 17.1H66.0391L64.1875 11.4219H65.4219L66.0391 14.1375C66.1625 14.7547 66.2859 15.3719 66.4094 15.9891C66.5328 15.4953 66.6563 14.8781 66.9031 14.1375L67.6438 11.4219H68.6313L69.3719 14.0141C69.6188 14.6313 69.7422 15.2484 69.8656 15.8656C69.9891 15.2484 70.1125 14.6313 70.2359 14.0141L70.9766 11.4219H72.4578Z" fill="white"/>
<path d="M78.8766 17.1H77.6422V13.8906C77.6422 12.9031 77.2719 12.4094 76.5312 12.4094C76.1609 12.4094 75.9141 12.5328 75.6672 12.7797C75.4203 13.0265 75.2969 13.3969 75.2969 13.7672V17.1H74.0625V13.0265C74.0625 12.5328 74.0625 12.039 74.0625 11.4219H75.1734V12.2859C75.2969 12.0391 75.5437 11.7922 75.7906 11.5453C76.1609 11.2984 76.5312 11.175 76.9016 11.175C77.3953 11.175 77.8891 11.2984 78.2594 11.6687C78.7531 12.0391 78.8766 12.6562 78.8766 13.5203V17.1Z" fill="white"/>
<path d="M82.333 17.1H81.0986V8.82971H82.333V17.1Z" fill="white"/>
<path d="M89.7393 14.261C89.7393 15.125 89.4924 15.8657 88.9986 16.3594C88.5049 16.9766 87.7643 17.2235 86.9002 17.2235C86.0361 17.2235 85.4189 16.9766 84.9252 16.3594C84.4314 15.8657 84.1846 15.125 84.1846 14.261C84.1846 13.3969 84.4314 12.6563 84.9252 12.1625C85.4189 11.6688 86.1596 11.2985 87.0236 11.2985C87.8877 11.2985 88.5049 11.5453 88.9986 12.1625C89.4924 12.6563 89.7393 13.3969 89.7393 14.261ZM88.5049 14.261C88.5049 13.7672 88.3814 13.2735 88.1346 12.9032C87.8877 12.4094 87.5174 12.286 87.0236 12.286C86.5299 12.286 86.1596 12.5328 85.9127 12.9032C85.6658 13.2735 85.5424 13.7672 85.5424 14.261C85.5424 14.7547 85.6658 15.2485 85.9127 15.6188C86.1596 16.1125 86.5299 16.236 87.0236 16.236C87.5174 16.236 87.8877 15.9891 88.1346 15.4953C88.3814 15.2485 88.5049 14.7547 88.5049 14.261Z" fill="white"/>
<path d="M95.7874 17.1H94.6765L94.553 16.4828C94.1827 16.9766 93.5655 17.2235 92.9483 17.2235C92.4546 17.2235 91.9608 17.1 91.714 16.7297C91.4671 16.3594 91.2202 15.9891 91.2202 15.6188C91.2202 14.8782 91.4671 14.3844 92.0843 14.0141C92.7015 13.6438 93.4421 13.5203 94.553 13.5203V13.3969C94.553 12.6563 94.1827 12.286 93.4421 12.286C92.8249 12.286 92.4546 12.4094 91.9608 12.6563L91.714 11.7922C92.2077 11.4219 92.8249 11.2985 93.689 11.2985C95.1702 11.2985 95.9108 12.0391 95.9108 13.6438V15.7422C95.7874 16.3594 95.7874 16.7297 95.7874 17.1ZM94.553 15.125V14.261C93.1952 14.261 92.4546 14.6313 92.4546 15.3719C92.4546 15.6188 92.578 15.8657 92.7015 15.9891C92.8249 16.1125 93.0718 16.236 93.3187 16.236C93.5655 16.236 93.8124 16.1125 94.0593 15.9891C94.3062 15.8657 94.4296 15.6188 94.553 15.3719C94.553 15.3719 94.553 15.2485 94.553 15.125Z" fill="white"/>
<path d="M102.947 17.1H101.836V16.2359C101.466 16.9766 100.849 17.2234 99.9845 17.2234C99.2438 17.2234 98.7501 16.9766 98.2563 16.4828C97.7626 15.9891 97.6392 15.2484 97.6392 14.3844C97.6392 13.5203 97.886 12.7797 98.3798 12.1625C98.8735 11.6688 99.4907 11.4219 100.108 11.4219C100.849 11.4219 101.342 11.6688 101.713 12.1625V8.95312H102.947V15.6188C102.947 16.1125 102.947 16.6063 102.947 17.1ZM101.713 14.7547V13.7672C101.713 13.6438 101.713 13.5203 101.713 13.3969C101.589 13.15 101.466 12.9031 101.219 12.6563C100.972 12.4094 100.725 12.4094 100.355 12.4094C99.861 12.4094 99.4907 12.6563 99.2438 13.0266C98.997 13.3969 98.8735 13.8906 98.8735 14.5078C98.8735 15.125 98.997 15.4953 99.2438 15.8656C99.4907 16.2359 99.861 16.4828 100.355 16.4828C100.725 16.4828 101.095 16.3594 101.342 15.9891C101.589 15.4953 101.713 15.125 101.713 14.7547Z" fill="white"/>
<path d="M113.686 14.261C113.686 15.125 113.439 15.8657 112.945 16.3594C112.452 16.9766 111.711 17.2235 110.847 17.2235C109.983 17.2235 109.366 16.9766 108.872 16.3594C108.378 15.8657 108.131 15.125 108.131 14.261C108.131 13.3969 108.378 12.6563 108.872 12.1625C109.366 11.5453 110.106 11.2985 110.97 11.2985C111.834 11.2985 112.452 11.5453 112.945 12.1625C113.439 12.6563 113.686 13.3969 113.686 14.261ZM112.328 14.261C112.328 13.7672 112.205 13.2735 111.958 12.9032C111.711 12.4094 111.341 12.286 110.847 12.286C110.353 12.286 109.983 12.5328 109.736 12.9032C109.489 13.2735 109.366 13.7672 109.366 14.261C109.366 14.7547 109.489 15.2485 109.736 15.6188C109.983 16.1125 110.353 16.236 110.847 16.236C111.341 16.236 111.711 15.9891 111.958 15.4953C112.205 15.2485 112.328 14.7547 112.328 14.261Z" fill="white"/>
<path d="M120.475 17.1H119.241V13.8906C119.241 12.9031 118.871 12.4094 118.13 12.4094C117.76 12.4094 117.513 12.5328 117.266 12.7797C117.019 13.0265 116.896 13.3969 116.896 13.7672V17.1H115.661V13.0265C115.661 12.5328 115.661 12.039 115.661 11.4219H116.772V12.2859C116.896 12.0391 117.142 11.7922 117.389 11.5453C117.76 11.2984 118.13 11.175 118.5 11.175C118.994 11.175 119.488 11.2984 119.858 11.6687C120.352 12.0391 120.475 12.6562 120.475 13.5203V17.1Z" fill="white"/>
<path d="M128.869 12.4094H127.511V15.125C127.511 15.8657 127.758 16.1125 128.252 16.1125C128.499 16.1125 128.622 16.1125 128.869 16.1125V17.1C128.622 17.2235 128.252 17.2235 127.881 17.2235C127.388 17.2235 127.017 17.1 126.771 16.7297C126.524 16.4828 126.4 15.8657 126.4 15.2485V12.4094H125.536V11.4219H126.4V10.4344L127.635 10.0641V11.4219H128.992V12.4094H128.869Z" fill="white"/>
<path d="M135.534 17.1H134.3V13.8906C134.3 12.9031 133.93 12.4094 133.189 12.4094C132.572 12.4094 132.201 12.6563 131.955 13.2735C131.955 13.3969 131.955 13.5203 131.955 13.7672V17.1H130.72V8.82971H131.955V12.286C132.325 11.6688 132.942 11.2985 133.683 11.2985C134.176 11.2985 134.67 11.4219 134.917 11.7922C135.287 12.1625 135.534 12.9031 135.534 13.6438V17.1Z" fill="white"/>
<path d="M142.323 14.0141C142.323 14.2609 142.323 14.3844 142.323 14.6313H138.62C138.62 15.2484 138.867 15.6188 139.114 15.8656C139.484 16.1125 139.854 16.2359 140.348 16.2359C140.965 16.2359 141.459 16.1125 141.829 15.9891L142.076 16.8531C141.583 17.1 140.965 17.2234 140.225 17.2234C139.361 17.2234 138.62 16.9766 138.126 16.4828C137.633 15.9891 137.386 15.2484 137.386 14.3844C137.386 13.5203 137.633 12.7797 138.126 12.2859C138.62 11.6688 139.237 11.4219 140.101 11.4219C140.965 11.4219 141.583 11.6688 141.953 12.2859C142.2 12.6563 142.323 13.2734 142.323 14.0141ZM141.212 13.6438C141.212 13.2734 141.089 12.9031 140.965 12.6563C140.719 12.2859 140.472 12.1625 139.978 12.1625C139.608 12.1625 139.237 12.2859 138.99 12.6563C138.744 12.9031 138.62 13.2734 138.62 13.6438H141.212Z" fill="white"/>
</svg>
