<svg xmlns="http://www.w3.org/2000/svg" version="1.1" xmlns:xlink="http://www.w3.org/1999/xlink" width="52" height="52" x="0" y="0" viewBox="0 0 1707 1707" style="enable-background:new 0 0 512 512" xml:space="preserve" fill-rule="evenodd"><g><path d="M1154 1707c-4 0-8-2-11-4-278-189-400-419-384-724 1-9 8-17 17-18 302-44 350-200 391-168 129 104 204 144 365 168 9 1 17 9 17 18 17 305-105 535-384 724-3 2-7 4-11 4zM798 998c-10 277 103 489 356 664 253-175 366-387 356-664-156-25-237-70-356-164-117 92-200 139-356 164z" fill="#6c3c86" opacity="1" data-original="#000000"></path><path d="M1154 1614c-4 0-8-1-11-3-325-220-311-553-310-567 1-9 8-17 17-19 146-21 290-134 292-135 7-6 17-6 25 0 1 1 145 114 291 135 10 2 17 10 17 19 1 14 15 346-310 567-3 2-7 3-11 3zm-281-552c2 67 25 327 281 508 257-181 280-441 281-508-126-23-243-103-281-131-38 28-154 108-281 131zM769 1507c-297 0-613-74-613-212V211c0-26 40-26 40 0v1084c0 82 235 172 573 172 53 0 105-2 156-7 26-2 29 38 3 40-51 4-105 7-159 7zm593-548c-11 0-20-9-20-20V211c0-26 40-26 40 0v728c0 11-9 20-20 20z" fill="#6c3c86" opacity="1" data-original="#000000"></path><path d="M769 423c-297 0-613-74-613-212C156 74 472 0 769 0s613 74 613 211c0 138-316 212-613 212zm0-383c-338 0-573 90-573 171 0 82 235 172 573 172s573-90 573-172c0-81-235-171-573-171zM769 794c-297 0-613-74-613-212 0-26 40-26 40 0 0 81 235 172 573 172s573-91 573-172c0-26 40-26 40 0 0 138-316 212-613 212zM769 1136c-297 0-613-74-613-211 0-27 40-27 40 0 0 81 235 171 573 171 12 0 33-1 33 20 0 22-22 20-33 20zm592-177c-29 0-25-54 1-54 29 0 25 54-1 54z" fill="#6c3c86" opacity="1" data-original="#000000"></path><path d="M336 605c-85 0-85-130 0-130 86 0 86 130 0 130zm0-90c-33 0-33 50 0 50s33-50 0-50zM769 593c-78 0-155-5-227-14-26-4-21-44 6-40 214 28 485 15 662-51 25-9 39 29 14 38-115 42-281 67-455 67zM336 960c-85 0-85-130 0-130 86 0 86 130 0 130zm0-90c-33 0-33 50 0 50 34 0 33-50 0-50zM769 948c-78 0-155-5-227-14-26-4-21-44 6-40 142 19 311 18 453-2 26-3 32 36 6 40-75 10-155 16-238 16zM336 1315c-85 0-85-130 0-130 86 0 86 130 0 130zm0-90c-33 0-33 50 0 50s33-50 0-50zM769 1303c-78 0-155-5-227-14-26-4-21-44 6-40 97 13 171 14 270 13 26 0 27 40 1 40-17 1-33 1-50 1zM1116 1347c-6 0-11-2-15-5l-77-78c-19-18 9-47 28-28l64 63 140-141c19-18 47 10 29 29l-155 155c-4 3-9 5-14 5z" fill="#6c3c86" opacity="1" data-original="#000000"></path></g></svg>