<?xml version="1.0" encoding="UTF-8"?>
<svg id="Layer_2" data-name="Layer 2" xmlns="http://www.w3.org/2000/svg" xmlns:xlink="http://www.w3.org/1999/xlink" viewBox="0 0 165.29 158">
  <defs>
    <style>
      .cls-1 {
        fill: url(#linear-gradient-2);
      }

      .cls-2 {
        fill: url(#linear-gradient-6);
      }

      .cls-3 {
        fill: url(#linear-gradient-5);
      }

      .cls-4 {
        fill: url(#linear-gradient-3);
      }

      .cls-5 {
        fill: url(#linear-gradient);
      }

      .cls-6 {
        fill: url(#linear-gradient-4);
      }
    </style>
    <linearGradient id="linear-gradient" x1="82.63" y1="-18.08" x2="-1.44" y2="127.52" gradientUnits="userSpaceOnUse">
      <stop offset="0" stop-color="#70ccdd"/>
      <stop offset="1" stop-color="#2f3790"/>
    </linearGradient>
    <linearGradient id="linear-gradient-2" x1="99.16" y1="-8.54" x2="15.09" y2="137.07" xlink:href="#linear-gradient"/>
    <linearGradient id="linear-gradient-3" x1="144.33" y1="17.54" x2="60.26" y2="163.15" xlink:href="#linear-gradient"/>
    <linearGradient id="linear-gradient-4" x1="166.73" y1="30.48" x2="82.66" y2="176.08" xlink:href="#linear-gradient"/>
    <linearGradient id="linear-gradient-5" x1="150.2" y1="20.93" x2="66.13" y2="166.54" xlink:href="#linear-gradient"/>
    <linearGradient id="linear-gradient-6" x1="105.03" y1="-5.15" x2="20.96" y2="140.46" xlink:href="#linear-gradient"/>
  </defs>
  <g id="Layer_1-2" data-name="Layer 1">
    <g>
      <path class="cls-5" d="M43.54,92.3c.14,.06,.29,.13,.43,.19,1.94,.82,4.19,1.03,6.46,.43,4.05-1.08,7-4.77,7.23-8.95,.2-3.65-1.58-6.87-4.36-8.75-.05-.02-.1-.06-.16-.1-.2-.12-.41-.24-.61-.36-.05-.04-.1-.06-.14-.08-12.58-7.66-20.99-21.49-20.99-37.3,0-12.48,5.24-23.74,13.66-31.68,0,0,0,0,0,0C27.92,12.76,15.87,29.63,15.87,49.32s11.35,35.55,27.67,42.97Z"/>
      <path class="cls-1" d="M74.65,119.55c.12-.09,.26-.18,.38-.28,1.68-1.27,2.99-3.11,3.6-5.38,1.09-4.05-.63-8.45-4.14-10.74-3.06-1.99-6.74-2.07-9.76-.6-.04,.03-.1,.05-.16,.09-.2,.12-.41,.23-.62,.35-.05,.02-.1,.05-.14,.08-12.92,7.07-29.11,7.43-42.8-.47C10.21,96.36,3.08,86.19,.41,74.93c0,0,0,0,0,0-2.44,18.37,6.14,37.25,23.19,47.09,16.54,9.55,36.47,7.95,51.05-2.48Z"/>
      <path class="cls-4" d="M113.76,105.75c-.26-2.09-1.2-4.15-2.86-5.81-2.96-2.97-7.63-3.68-11.37-1.79-3.26,1.65-5.17,4.8-5.4,8.15,0,.05,0,.11,0,.18,0,.24,0,.47,0,.71,0,.06,0,.11,0,.17-.34,14.72-8.12,28.92-21.81,36.83-10.81,6.24-23.18,7.33-34.27,4.02,0,0,0,0,0,0,14.69,11.3,35.33,13.31,52.38,3.46,16.54-9.55,25.12-27.61,23.38-45.45-.02-.15-.03-.31-.05-.47Z"/>
      <path class="cls-6" d="M121.75,65.7c-.14-.06-.29-.13-.43-.19-1.94-.82-4.19-1.03-6.46-.43-4.05,1.08-7,4.77-7.23,8.96-.2,3.65,1.58,6.87,4.36,8.75,.05,.02,.1,.06,.16,.1l.61,.36s.1,.06,.14,.08c12.58,7.66,20.99,21.49,20.99,37.3,0,12.48-5.24,23.74-13.66,31.68,0,0,0,0,0,0,17.13-7.07,29.19-23.94,29.19-43.63s-11.35-35.55-27.67-42.97Z"/>
      <path class="cls-3" d="M141.69,35.98c-16.54-9.55-36.47-7.95-51.05,2.48-.12,.09-.26,.18-.38,.28-1.68,1.27-2.99,3.11-3.6,5.38-1.09,4.05,.63,8.45,4.14,10.74,3.06,1.99,6.74,2.07,9.76,.6,.04-.03,.1-.05,.16-.09,.2-.12,.41-.23,.62-.35,.05-.02,.1-.05,.14-.08,12.92-7.07,29.11-7.43,42.8,.47,10.81,6.24,17.94,16.41,20.61,27.67,0,0,0,0,0,0,2.44-18.37-6.14-37.25-23.19-47.09Z"/>
      <path class="cls-2" d="M51.54,52.25c.26,2.09,1.2,4.15,2.86,5.81,2.96,2.97,7.63,3.68,11.37,1.79,3.26-1.65,5.17-4.8,5.4-8.15,0-.05,0-.11,0-.18,0-.24,0-.47,0-.71,0-.06,0-.11,0-.17,.34-14.72,8.12-28.92,21.81-36.83,10.81-6.24,23.18-7.33,34.27-4.02,0,0,0,0,0,0-14.69-11.3-35.33-13.31-52.38-3.46-16.54,9.55-25.12,27.61-23.38,45.45,.02,.15,.03,.31,.05,.47Z"/>
    </g>
  </g>
</svg>