<svg width="158" height="50" viewBox="0 0 158 50" fill="none" xmlns="http://www.w3.org/2000/svg">
<path d="M153.062 49.6875H4.9375C2.22187 49.6875 0 47.4656 0 44.75V5.25C0 2.53437 2.22187 0.3125 4.9375 0.3125H153.062C155.778 0.3125 158 2.53437 158 5.25V44.75C158 47.4656 155.778 49.6875 153.062 49.6875Z" fill="black"/>
<path fill-rule="evenodd" clip-rule="evenodd" d="M12.0967 24.5062V11.5453C12.0967 10.8047 12.7139 10.1875 13.3311 10.1875C13.9482 10.1875 14.1951 10.3109 14.5654 10.5578L38.3889 23.6422C38.8826 23.8891 39.1295 24.2594 39.1295 24.6297C39.1295 25 38.8826 25.3703 38.3889 25.6172L14.5654 38.7016C14.3186 38.825 13.9482 39.0719 13.3311 39.0719C12.7139 39.0719 12.0967 38.4547 12.0967 37.7141V24.5062Z" fill="url(#paint0_linear_14_34)"/>
<path fill-rule="evenodd" clip-rule="evenodd" d="M27.5267 24.6297L13.0845 10.1875C13.2079 10.1875 13.2079 10.1875 13.3313 10.1875C13.9485 10.1875 14.1954 10.3109 14.5657 10.5578L32.0938 20.1859L27.5267 24.6297Z" fill="url(#paint1_linear_14_34)"/>
<path fill-rule="evenodd" clip-rule="evenodd" d="M31.9701 28.95L27.5264 24.5063L32.0936 19.9391L38.3889 23.3953C38.8826 23.6422 39.1295 24.0125 39.1295 24.3828C39.1295 24.7531 38.8826 25.1235 38.3889 25.3703L31.9701 28.95Z" fill="url(#paint2_linear_14_34)"/>
<path fill-rule="evenodd" clip-rule="evenodd" d="M13.208 38.825L27.5268 24.5062L31.9705 28.95L14.5658 38.4547C14.1955 38.7015 13.9486 38.825 13.208 38.825C13.3314 38.825 13.3314 38.825 13.208 38.825Z" fill="url(#paint3_linear_14_34)"/>
<path fill-rule="evenodd" clip-rule="evenodd" d="M87.7641 42.1578C87.1469 41.6641 86.6532 40.8 86.4063 40.3063L88.3813 39.4422C88.5047 39.6891 88.7516 40.0594 88.9985 40.4297C89.4922 40.9234 90.2329 41.4172 90.9735 41.4172C91.7141 41.4172 92.5782 41.0469 93.0719 40.4297C93.4422 39.8125 93.6891 39.1953 93.6891 38.3312V37.5906C92.2079 39.4422 89.1219 39.1953 87.3938 37.2203C85.5422 35.2453 85.5422 31.9125 87.3938 29.9375C89.2453 28.0859 91.961 27.8391 93.5657 29.5672V28.7031H95.6641V37.9609C95.6641 40.3062 94.8 41.6641 93.6891 42.5281C92.9485 43.1453 91.8376 43.3922 90.8501 43.3922C89.7391 43.2688 88.6282 42.8984 87.7641 42.1578ZM139.484 42.6516L141.583 37.7141L137.88 29.1969H139.978L142.57 35.2453L145.163 29.1969H147.261L141.583 42.6516H139.484ZM129.486 37.9609C128.869 37.3438 128.622 36.4797 128.622 35.6156C128.622 34.875 128.869 34.1344 129.363 33.6406C130.227 32.7766 131.461 32.4062 132.819 32.4062C133.683 32.4062 134.423 32.5297 135.041 32.9C135.041 31.4188 133.806 30.8016 132.819 30.8016C131.955 30.8016 131.091 31.2953 130.72 32.1594L128.869 31.4188C129.239 30.5547 130.227 28.95 132.695 28.95C133.93 28.95 135.164 29.3203 135.905 30.1844C136.645 31.0484 136.892 32.0359 136.892 33.3937V38.5781H134.794V37.7141C134.547 38.0844 134.053 38.3313 133.683 38.5781C133.189 38.825 132.572 38.9484 131.955 38.9484C131.214 38.825 130.103 38.5781 129.486 37.9609ZM63.6938 33.5172C63.6938 31.0484 65.5454 28.3328 68.8782 28.3328C72.0875 28.3328 74.0625 31.0484 74.0625 33.5172C74.0625 35.9859 72.211 38.7016 68.8782 38.7016C65.5454 38.7016 63.6938 35.9859 63.6938 33.5172ZM74.8032 33.5172C74.8032 31.0484 76.6547 28.3328 79.9875 28.3328C83.1969 28.3328 85.1719 31.0484 85.1719 33.5172C85.1719 35.9859 83.3204 38.7016 79.9875 38.7016C76.7782 38.7016 74.8032 35.9859 74.8032 33.5172ZM49.7454 36.2328C46.6594 33.1469 46.7829 28.0859 49.8688 24.8766C51.4735 23.2719 53.4485 22.5312 55.5469 22.5312C57.5219 22.5312 59.4969 23.2719 60.9782 24.7531L59.4969 26.3578C57.275 24.1359 53.6954 24.2594 51.5969 26.4813C49.3751 28.8266 49.3751 32.4063 51.5969 34.7516C53.8188 37.0969 57.5219 37.2203 59.7438 34.875C60.4844 34.1344 60.7313 33.1469 60.8547 32.1594H55.6704V29.9375H62.9532C63.0766 30.4313 63.0766 31.0484 63.0766 31.6656C63.0766 33.5172 62.336 35.3688 61.1016 36.6031C59.7438 37.9609 57.7688 38.7016 55.7938 38.7016C53.5719 38.5781 51.3501 37.8375 49.7454 36.2328ZM101.959 37.0969C100.108 35.1219 100.108 31.7891 101.959 29.6906C103.811 27.7156 106.897 27.7156 108.625 29.6906C109.242 30.3078 109.613 31.1719 109.983 32.0359L103.194 34.875C103.564 35.7391 104.428 36.4797 105.663 36.4797C106.773 36.4797 107.514 36.1094 108.255 34.9984L110.106 36.2328C109.859 36.4797 109.613 36.7266 109.489 36.9734C107.391 39.0719 103.811 39.0719 101.959 37.0969ZM114.797 38.5781V24.8766H119.241C121.833 24.8766 123.931 26.7281 123.931 28.95C123.931 31.1719 122.08 33.0234 119.734 33.0234H117.019V38.4547H114.797V38.5781ZM125.166 38.5781V24.8766H127.264V38.5781H125.166ZM97.2688 38.3312V23.025H99.4907V38.3312H97.2688ZM134.917 34.5047C134.423 34.1344 133.683 34.0109 132.942 34.0109C131.461 34.0109 130.597 34.7516 130.597 35.6156C130.597 36.4797 131.461 36.9734 132.325 36.9734C133.559 36.9734 134.917 35.9859 134.917 34.5047ZM71.7172 33.5172C71.7172 32.0359 70.7297 30.4313 68.8782 30.4313C67.0266 30.4313 66.0391 32.0359 66.0391 33.5172C66.0391 34.9984 67.0266 36.6031 68.8782 36.6031C70.6063 36.6031 71.7172 34.9984 71.7172 33.5172ZM82.8266 33.5172C82.8266 32.0359 81.8391 30.4313 79.9875 30.4313C78.136 30.4313 77.1485 32.0359 77.1485 33.5172C77.1485 34.9984 78.136 36.6031 79.9875 36.6031C81.8391 36.6031 82.8266 34.9984 82.8266 33.5172ZM93.8125 34.3812C93.8125 34.2578 93.8126 34.1344 93.936 34.0109C93.936 33.8875 93.936 33.6406 93.936 33.5172C93.936 33.3938 93.936 33.1469 93.936 33.0234V32.9C93.936 32.7766 93.8125 32.5297 93.8125 32.4062C93.4422 31.1719 92.3313 30.3078 91.2204 30.3078C89.7391 30.3078 88.5047 31.7891 88.5047 33.3937C88.5047 35.1219 89.7391 36.4797 91.3438 36.4797C92.3313 36.6031 93.3188 35.7391 93.8125 34.3812ZM102.823 33.2703L107.391 31.2953C106.897 30.4312 106.156 30.1844 105.539 30.1844C103.688 30.3078 102.577 32.2828 102.823 33.2703ZM121.709 29.0734C121.709 27.8391 120.722 26.975 119.364 26.975H116.895V31.2953H119.488C120.722 31.2953 121.709 30.3078 121.709 29.0734Z" fill="white"/>
<path fill-rule="evenodd" clip-rule="evenodd" d="M141.09 40.1836H140.966V40.0594H141.09H140.966V40.1836H141.09Z" fill="white"/>
<path fill-rule="evenodd" clip-rule="evenodd" d="M141.336 40.1836C141.336 40.0594 141.336 40.0594 141.336 40.1836C141.212 40.0594 141.212 40.0594 141.336 40.1836C141.212 40.1836 141.212 40.1836 141.336 40.1836ZM141.336 40.0594C141.336 40.1836 141.336 40.1836 141.336 40.0594C141.212 40.1836 141.336 40.1836 141.336 40.0594C141.336 40.0594 141.212 40.0594 141.336 40.0594Z" fill="white"/>
<path fill-rule="evenodd" clip-rule="evenodd" d="M141.46 40.0594H141.336H141.46V40.1836V40.0594Z" fill="white"/>
<path d="M48.0171 12.7797C48.0171 10.5578 49.6218 9.20001 51.5968 9.20001C52.9546 9.20001 53.8187 9.8172 54.4359 10.6813L53.4484 11.2984C53.078 10.8047 52.4609 10.4344 51.5968 10.4344C50.239 10.4344 49.2515 11.4219 49.2515 12.9031C49.2515 14.3844 50.239 15.3719 51.5968 15.3719C52.3374 15.3719 52.9546 15.0016 53.2015 14.7547V13.6438H51.2265V12.5328H54.5593V15.125C53.9421 15.8656 52.9546 16.3594 51.7202 16.3594C49.6218 16.3594 48.0171 14.8781 48.0171 12.7797Z" fill="white"/>
<path d="M56.0405 16.2359V9.32343H60.7312V10.4344H57.1515V12.1625H60.6077V13.2734H57.1515V15.2484H60.7312V16.3594L56.0405 16.2359Z" fill="white"/>
<path d="M64.1873 16.2359V10.4344H62.0889V9.32343H67.5201V10.4344H65.4217V16.2359H64.1873Z" fill="white"/>
<path d="M71.7173 16.2359V9.32343H72.9517V16.2359H71.7173Z" fill="white"/>
<path d="M76.2845 16.2359V10.4344H74.186V9.32343H79.6173V10.4344H77.5188V16.2359H76.2845Z" fill="white"/>
<path d="M83.5674 12.7797C83.5674 10.6813 85.0486 9.20001 87.1471 9.20001C89.2455 9.20001 90.7268 10.6813 90.7268 12.7797C90.7268 14.8781 89.2455 16.3594 87.1471 16.3594C85.0486 16.3594 83.5674 14.7547 83.5674 12.7797ZM89.3689 12.7797C89.3689 11.2984 88.5049 10.3109 87.0236 10.3109C85.6658 10.3109 84.6783 11.4219 84.6783 12.7797C84.6783 14.2609 85.5424 15.2484 87.0236 15.2484C88.5049 15.2484 89.3689 14.1375 89.3689 12.7797Z" fill="white"/>
<path d="M96.8985 16.2359L93.3188 11.2984V16.2359H92.0845V9.32343H93.3188L96.8985 14.1375V9.32343H98.1329V16.2359H96.8985Z" fill="white"/>
<defs>
<linearGradient id="paint0_linear_14_34" x1="20.0799" y1="8.42679" x2="26.9902" y2="36.8062" gradientUnits="userSpaceOnUse">
<stop stop-color="#006884"/>
<stop offset="1" stop-color="#8AD1D0"/>
</linearGradient>
<linearGradient id="paint1_linear_14_34" x1="11.6535" y1="12.4634" x2="30.4851" y2="22.6439" gradientUnits="userSpaceOnUse">
<stop stop-color="#24BBB6"/>
<stop offset="1" stop-color="#DBE692"/>
</linearGradient>
<linearGradient id="paint2_linear_14_34" x1="33.321" y1="29.4686" x2="33.321" y2="19.6573" gradientUnits="userSpaceOnUse">
<stop stop-color="#FCC072"/>
<stop offset="1" stop-color="#F58A5B"/>
</linearGradient>
<linearGradient id="paint3_linear_14_34" x1="15.2999" y1="41.379" x2="30.1762" y2="26.2392" gradientUnits="userSpaceOnUse">
<stop stop-color="#712B8F"/>
<stop offset="1" stop-color="#EA1D27"/>
</linearGradient>
</defs>
</svg>
