<svg width="40" height="41" viewBox="0 0 40 41" fill="none" xmlns="http://www.w3.org/2000/svg">
<g clip-path="url(#clip0_837_3089)">
<path d="M38.5714 30.5V36.2143C38.5714 36.972 38.2704 37.6988 37.7346 38.2346C37.1988 38.7704 36.472 39.0714 35.7143 39.0714H30" stroke="#2F3790" stroke-width="2" stroke-linecap="round" stroke-linejoin="round"/>
<path d="M29.998 1.92969H35.7123C36.4701 1.92969 37.1968 2.23071 37.7326 2.76653C38.2685 3.30234 38.5695 4.02907 38.5695 4.78683V10.5011" stroke="#2F3790" stroke-width="2" stroke-linecap="round" stroke-linejoin="round"/>
<path d="M1.42773 10.5011V4.78683C1.42773 4.02907 1.72875 3.30234 2.26457 2.76653C2.80039 2.23071 3.52712 1.92969 4.28488 1.92969H9.99916" stroke="#2F3790" stroke-width="2" stroke-linecap="round" stroke-linejoin="round"/>
<path d="M9.99916 39.0714H4.28488C3.52712 39.0714 2.80039 38.7704 2.26457 38.2346C1.72875 37.6988 1.42773 36.972 1.42773 36.2143V30.5" stroke="#2F3790" stroke-width="2" stroke-linecap="round" stroke-linejoin="round"/>
<path d="M32.8569 20.5011C32.8569 20.5011 27.1426 29.0725 19.9997 29.0725C12.8569 29.0725 7.14258 20.5011 7.14258 20.5011C7.14258 20.5011 12.8569 11.9297 19.9997 11.9297C27.1426 11.9297 32.8569 20.5011 32.8569 20.5011Z" stroke="#2F3790" stroke-width="2" stroke-linecap="round" stroke-linejoin="round"/>
<path d="M19.9989 21.9314C20.7879 21.9314 21.4275 21.2918 21.4275 20.5028C21.4275 19.7138 20.7879 19.0742 19.9989 19.0742C19.2099 19.0742 18.5703 19.7138 18.5703 20.5028C18.5703 21.2918 19.2099 21.9314 19.9989 21.9314Z" stroke="#2F3790" stroke-width="2" stroke-linecap="round" stroke-linejoin="round"/>
</g>
<defs>
<clipPath id="clip0_837_3089">
<rect width="40" height="40" fill="white" transform="translate(0 0.5)"/>
</clipPath>
</defs>
</svg>
