<svg width="40" height="40" viewBox="0 0 40 40" fill="none" xmlns="http://www.w3.org/2000/svg">
<g clip-path="url(#clip0_837_3198)">
<path d="M9.28488 17.144C13.6243 17.144 17.142 13.6262 17.142 9.28683C17.142 4.94745 13.6243 1.42969 9.28488 1.42969C4.9455 1.42969 1.42773 4.94745 1.42773 9.28683C1.42773 13.6262 4.9455 17.144 9.28488 17.144Z" stroke="#2F3790" stroke-width="1.5" stroke-linecap="round" stroke-linejoin="round"/>
<path d="M30.7126 17.144C35.052 17.144 38.5698 13.6262 38.5698 9.28683C38.5698 4.94745 35.052 1.42969 30.7126 1.42969C26.3732 1.42969 22.8555 4.94745 22.8555 9.28683C22.8555 13.6262 26.3732 17.144 30.7126 17.144Z" stroke="#2F3790" stroke-width="1.5" stroke-linecap="round" stroke-linejoin="round"/>
<path d="M9.28488 38.5737C13.6243 38.5737 17.142 35.0559 17.142 30.7165C17.142 26.3771 13.6243 22.8594 9.28488 22.8594C4.9455 22.8594 1.42773 26.3771 1.42773 30.7165C1.42773 35.0559 4.9455 38.5737 9.28488 38.5737Z" stroke="#2F3790" stroke-width="1.5" stroke-linecap="round" stroke-linejoin="round"/>
<path d="M30.7126 38.5737C35.052 38.5737 38.5698 35.0559 38.5698 30.7165C38.5698 26.3771 35.052 22.8594 30.7126 22.8594C26.3732 22.8594 22.8555 26.3771 22.8555 30.7165C22.8555 35.0559 26.3732 38.5737 30.7126 38.5737Z" stroke="#2F3790" stroke-width="1.5" stroke-linecap="round" stroke-linejoin="round"/>
</g>
<defs>
<clipPath id="clip0_837_3198">
<rect width="40" height="40" fill="white"/>
</clipPath>
</defs>
</svg>
