<svg width="41" height="41" viewBox="0 0 41 41" fill="none" xmlns="http://www.w3.org/2000/svg">
<path d="M30.7297 5.07227H9.92971C9.45018 5.08543 8.98048 5.21126 8.55858 5.43958C8.13669 5.6679 7.77444 5.9923 7.50114 6.38655L2.30114 13.5866C1.91502 14.1322 1.72218 14.7912 1.75324 15.4589C1.7843 16.1266 2.03747 16.7648 2.47257 17.2723L18.0726 35.2437C18.3396 35.5878 18.6819 35.8663 19.0731 36.0579C19.4643 36.2495 19.8941 36.3491 20.3297 36.3491C20.7653 36.3491 21.1952 36.2495 21.5864 36.0579C21.9776 35.8663 22.3198 35.5878 22.5869 35.2437L38.1869 17.2723C38.622 16.7648 38.8751 16.1266 38.9062 15.4589C38.9372 14.7912 38.7444 14.1322 38.3583 13.5866L33.1583 6.38655C32.885 5.9923 32.5227 5.6679 32.1008 5.43958C31.679 5.21126 31.2092 5.08543 30.7297 5.07227V5.07227Z" stroke="#2F3790" stroke-width="1.5" stroke-linecap="round" stroke-linejoin="round"/>
<path d="M18.8445 5.04297L11.873 15.843L20.3302 36.2715" stroke="#2F3790" stroke-width="1.5" stroke-linecap="round" stroke-linejoin="round"/>
<path d="M21.9015 5.04297L28.8444 15.843L20.3301 36.2715" stroke="#2F3790" stroke-width="1.5" stroke-linecap="round" stroke-linejoin="round"/>
<path d="M1.81445 15.8438H38.843" stroke="#2F3790" stroke-width="1.5" stroke-linecap="round" stroke-linejoin="round"/>
</svg>
