<?xml version="1.0" encoding="UTF-8"?>
<svg id="Layer_2" data-name="Layer 2" xmlns="http://www.w3.org/2000/svg" xmlns:xlink="http://www.w3.org/1999/xlink" viewBox="0 0 396.61 120.02">
  <defs>
    <style>
      .cls-1 {
        fill: url(#linear-gradient-2);
      }

      .cls-2 {
        fill: url(#linear-gradient-6);
      }

      .cls-3 {
        fill: url(#linear-gradient-5);
      }

      .cls-4 {
        fill: url(#linear-gradient-3);
      }

      .cls-5 {
        fill: url(#linear-gradient);
      }

      .cls-6 {
        fill: #333438;
      }

      .cls-7 {
        fill: url(#linear-gradient-4);
      }
    </style>
    <linearGradient id="linear-gradient" x1="333.81" y1="-13.73" x2="269.96" y2="96.87" gradientUnits="userSpaceOnUse">
      <stop offset="0" stop-color="#70ccdd"/>
      <stop offset="1" stop-color="#2f3790"/>
    </linearGradient>
    <linearGradient id="linear-gradient-2" x1="346.37" y1="-6.48" x2="282.51" y2="104.12" xlink:href="#linear-gradient"/>
    <linearGradient id="linear-gradient-3" x1="380.68" y1="13.33" x2="316.83" y2="123.93" xlink:href="#linear-gradient"/>
    <linearGradient id="linear-gradient-4" x1="397.7" y1="23.15" x2="333.84" y2="133.76" xlink:href="#linear-gradient"/>
    <linearGradient id="linear-gradient-5" x1="385.14" y1="15.9" x2="321.28" y2="126.51" xlink:href="#linear-gradient"/>
    <linearGradient id="linear-gradient-6" x1="350.83" y1="-3.91" x2="286.97" y2="106.7" xlink:href="#linear-gradient"/>
  </defs>
  <g id="Layer_1-2" data-name="Layer 1">
    <g>
      <path class="cls-5" d="M304.12,70.11c.11,.05,.22,.1,.33,.15,1.47,.62,3.19,.79,4.9,.33,3.08-.82,5.32-3.62,5.49-6.8,.15-2.77-1.2-5.22-3.31-6.65-.04-.02-.07-.05-.12-.07-.15-.09-.31-.18-.46-.27-.04-.03-.07-.05-.11-.06-9.56-5.82-15.95-16.33-15.95-28.33,0-9.48,3.98-18.03,10.37-24.07,0,0,0,0,0,0-13.01,5.37-22.17,18.19-22.17,33.14s8.62,27.01,21.02,32.64Z"/>
      <path class="cls-1" d="M327.75,90.81c.09-.07,.2-.14,.29-.21,1.28-.96,2.27-2.37,2.73-4.08,.83-3.08-.48-6.42-3.14-8.16-2.32-1.52-5.12-1.57-7.41-.46-.03,.02-.08,.04-.12,.07-.16,.09-.31,.18-.47,.26-.04,.02-.08,.04-.11,.06-9.82,5.37-22.11,5.65-32.51-.36-8.21-4.74-13.62-12.47-15.66-21.02,0,0,0,0,0,0-1.85,13.96,4.67,28.29,17.62,35.77,12.57,7.26,27.7,6.04,38.78-1.88Z"/>
      <path class="cls-4" d="M357.46,80.33c-.2-1.59-.91-3.15-2.17-4.41-2.25-2.25-5.8-2.8-8.64-1.36-2.47,1.25-3.92,3.65-4.1,6.19,0,.04,0,.09,0,.14,0,.18,0,.36,0,.54,0,.05,0,.09,0,.13-.26,11.18-6.17,21.97-16.56,27.98-8.21,4.74-17.61,5.57-26.03,3.05,0,0,0,0,0,0,11.16,8.58,26.84,10.11,39.79,2.63,12.57-7.26,19.08-20.97,17.76-34.52-.02-.12-.02-.24-.04-.36Z"/>
      <path class="cls-7" d="M363.54,49.91c-.11-.05-.22-.1-.33-.15-1.47-.62-3.19-.79-4.9-.33-3.08,.82-5.32,3.62-5.49,6.8-.15,2.77,1.2,5.22,3.31,6.65,.04,.02,.07,.05,.12,.07l.46,.27s.07,.05,.11,.06c9.56,5.82,15.95,16.33,15.95,28.33,0,9.48-3.98,18.03-10.37,24.07,0,0,0,0,0,0,13.01-5.37,22.17-18.19,22.17-33.14s-8.62-27.01-21.02-32.64Z"/>
      <path class="cls-3" d="M378.68,27.33c-12.57-7.26-27.7-6.04-38.78,1.88-.09,.07-.2,.14-.29,.21-1.28,.96-2.27,2.37-2.73,4.08-.83,3.08,.48,6.42,3.14,8.16,2.32,1.52,5.12,1.57,7.41,.46,.03-.02,.08-.04,.12-.07,.16-.09,.31-.18,.47-.26,.04-.02,.08-.04,.11-.06,9.82-5.37,22.11-5.65,32.51,.36,8.21,4.74,13.62,12.47,15.66,21.02,0,0,0,0,0,0,1.85-13.96-4.67-28.29-17.62-35.77Z"/>
      <path class="cls-2" d="M310.2,39.69c.2,1.59,.91,3.15,2.17,4.41,2.25,2.25,5.8,2.8,8.64,1.36,2.47-1.25,3.92-3.65,4.1-6.19,0-.04,0-.09,0-.14,0-.18,0-.36,0-.54,0-.04,0-.09,0-.13,.26-11.18,6.17-21.97,16.56-27.98,8.21-4.74,17.61-5.57,26.03-3.05,0,0,0,0,0,0-11.16-8.58-26.84-10.11-39.79-2.63-12.57,7.26-19.08,20.97-17.76,34.52,.02,.12,.02,.24,.04,.36Z"/>
    </g>
    <g>
      <g>
        <rect class="cls-6" x="130.95" y="18.84" width="4.78" height="32.35"/>
        <path class="cls-6" d="M169.05,26.24c-2.45,0-4.34,.25-5.67,.75-1.33,.5-2.3,1.42-2.91,2.76-.61,1.34-.91,3.31-.91,5.9,0,2.42,.25,4.23,.75,5.42,.5,1.19,1.26,1.98,2.28,2.37s2.47,.59,4.35,.59h4.42v.86c0,.07-.01,.14-.02,.21v1.75h-14.64c-1.66,0-2.85-.44-3.55-1.32-.7-.88-1.05-2.01-1.05-3.39,0-.78,.09-1.83,.27-3.14,.18-1.31,.43-3.01,.77-5.1l.25-1.68-4.46-.75c-.97,5.47-1.46,9.18-1.46,11.16,0,1.54,.33,2.96,.98,4.26s1.67,2.33,3.05,3.12c1.38,.78,3.11,1.18,5.2,1.18h19.43V26.7l-1.85-.21c-1.55-.16-3.29-.25-5.24-.25Zm-.93,13.44c-1.02,0-1.78-.07-2.28-.21s-.87-.5-1.12-1.09c-.25-.58-.37-1.52-.37-2.8,0-1.38,.15-2.42,.46-3.14,.31-.71,.8-1.2,1.48-1.46,.68-.26,1.65-.39,2.91-.39,.74,0,1.46,.02,2.17,.07v9.02h-3.24Z"/>
        <path class="cls-6" d="M238.92,31.48v15.36h-9.73v-13.47h-4.78v13.47h-8.31v-4.6c0-2.47-.62-4.63-1.87-6.47-1.25-1.84-3.37-2.76-6.36-2.76-1.52,0-2.86,.26-4.03,.79-1.17,.52-2.18,1.2-3.05,2.03s-1.83,1.91-2.91,3.24V18.84h-4.78v28h-6.49V18.84h-4.78V51.19h61.85V18.84h-4.78v12.63Zm-27.59,15.36h-13.44v-.32c0-.43,.43-1.42,1.28-2.98,.86-1.56,1.95-2.98,3.28-4.26,1.33-1.28,2.78-1.93,4.35-1.93,1.43,0,2.54,.56,3.33,1.68,.8,1.12,1.19,2.5,1.19,4.13v3.67Z"/>
        <polygon class="cls-6" points="249.4 18.84 249.4 31.48 249.4 51.19 254.18 51.19 254.18 31.48 254.18 18.84 249.4 18.84"/>
        <rect class="cls-6" x="224.56" y="18.84" width="4.38" height="4.63"/>
        <rect class="cls-6" x="171.55" y="18.84" width="4.38" height="4.63"/>
        <rect class="cls-6" x="165.66" y="18.84" width="4.38" height="4.63"/>
        <path class="cls-6" d="M125.24,18.84h-4.78v12.9h0v15.1h-7.38v-5.56c0-.64-.1-1.75-.3-3.31-.2-1.57-.43-3.11-.7-4.63l-4.17,.18c.17,2,.27,3.52,.32,4.58,.05,1.06,.07,2.35,.07,3.87v4.88h-2.67c-.36,0-.71-.07-1.05-.2-.35-.13-.62-.28-.84-.45,.24-.95,.36-2.03,.36-3.24v-7.81h-4.78v7.81c0,1.14-.24,2.07-.73,2.8-.49,.73-1.18,1.09-2.09,1.09h-1.64v-11.69h-4.78v11.69h-10.8v-13.47h-4.78v13.47h-5.31v4.35h28.94c1.43,0,2.61-.44,3.57-1.32,.45,.36,1.04,.66,1.76,.93,.72,.26,1.48,.39,2.26,.39h19.5V26.24h0v-7.39Z"/>
        <rect class="cls-6" x="102.06" y="25.29" width="4.38" height="4.63"/>
        <rect class="cls-6" x="96.17" y="25.29" width="4.38" height="4.63"/>
        <rect class="cls-6" x="99.16" y="18.84" width="4.38" height="4.63"/>
        <path class="cls-6" d="M64.47,42.49c0-1.11-.17-2.32-.52-3.6-.34-1.28-1.02-2.44-2.05-3.46-1.02-1.03-2.49-1.53-4.38-1.53h-7.2l8.7-15.06h-5.02l-8.69,15.06-.59,1.03,2.46,3.32h9.56c.8,0,1.5,.39,2.08,1.17s.88,1.8,.88,3.03v4.38h-13.22s-4.74,0-4.74,0v-1.61h-.01v-2.74c0-1.11-.17-2.32-.52-3.6-.34-1.28-1.03-2.44-2.05-3.46-.38-.36-.8-.67-1.28-.91-.84-.41-1.89-.63-3.11-.63h-3.94c-1.22,0-2.27,.22-3.11,.63-.48,.23-.91,.55-1.28,.91-1.02,1.02-1.7,2.17-2.05,3.46-.09,.33-.16,.64-.22,.95h.02c-.2,.92-.3,1.81-.3,2.64v.14c0,.08,0,.16-.02,.22-.02,1.14-.31,2.08-.86,2.82-.58,.78-1.28,1.17-2.08,1.17h-6.27s-4.26,0-4.26,0h0s-1.16,0-1.16,0c-1.66,0-2.85-.44-3.55-1.32-.7-.88-1.05-2.01-1.05-3.39,0-.78,.09-1.83,.27-3.14,.18-1.31,.43-3.01,.77-5.1l.25-1.68-4.46-.75c-.97,5.47-1.46,9.18-1.46,11.16,0,1.54,.33,2.96,.98,4.26s1.67,2.33,3.05,3.12c1.38,.78,3.11,1.18,5.2,1.18h.71s4.71,0,4.71,0h7.05c1.91,0,3.36-.52,4.38-1.53,1.03-1.02,1.7-2.17,2.05-3.46,.08-.31,.16-.64,.22-.95h0c.2-.92,.3-1.81,.3-2.64v-.14c0-1.24,.28-2.25,.88-3.03,.58-.78,1.27-1.17,2.08-1.17h2.38c.81,0,1.5,.39,2.1,1.17,.58,.78,.86,1.8,.86,3.03v2.78h.02v5.94h6.87s25.37,0,25.37,0v-4.35h-4.74v-4.35Z"/>
        <rect class="cls-6" x="74.74" y="54.52" width="4.38" height="4.63"/>
        <rect class="cls-6" x="15.41" y="54.52" width="4.38" height="4.63"/>
        <rect class="cls-6" x="9.52" y="54.52" width="4.38" height="4.63"/>
      </g>
      <g>
        <path class="cls-6" d="M19.28,72.55v23.29h-7.77l-5.82-19.18h-.34v19.18H.62v-23.29h7.98l5.62,19.18h.34v-19.18h4.73Z"/>
        <path class="cls-6" d="M24.35,72.55h4.73v23.29h-4.73v-23.29Z"/>
        <path class="cls-6" d="M38.29,76.73h-6.23v-4.18h17.12v4.18h-6.16v19.11h-4.73v-19.11Z"/>
        <path class="cls-6" d="M62.74,91.63h-8.15l-.92,4.21h-4.73l5.24-23.29h8.97l5.24,23.29h-4.73l-.92-4.21Zm-3.25-15.17h-1.64l-2.36,11.06h6.37l-2.36-11.06Z"/>
        <path class="cls-6" d="M81.3,96.15c-.23,.07-.73,.1-1.51,.1-2.37,0-4.26-.42-5.67-1.27-1.4-.85-2.42-2.13-3.05-3.87-.63-1.73-.94-4.01-.94-6.81s.31-5.1,.94-6.87,1.65-3.09,3.06-3.97,3.3-1.32,5.65-1.32,4.24,.44,5.65,1.32,2.44,2.21,3.07,3.99c.63,1.78,.94,4.08,.94,6.88,0,5.07-1.2,8.48-3.6,10.24l2.84,4.59-4.31,2.02-3.08-5.03Zm1.39-4.78c.7-.51,1.19-1.33,1.47-2.45,.29-1.12,.43-2.65,.43-4.59s-.15-3.49-.45-4.66-.79-2.03-1.49-2.59-1.65-.84-2.86-.84-2.16,.28-2.86,.84-1.19,1.42-1.49,2.59-.45,2.72-.45,4.66c0,1.8,.13,3.26,.38,4.37,.25,1.11,.73,1.96,1.42,2.55,.7,.59,1.69,.89,3,.89,1.23,0,2.2-.26,2.89-.77Z"/>
        <path class="cls-6" d="M119.69,72.55v23.29h-7.77l-5.82-19.18h-.34v19.18h-4.73v-23.29h7.98l5.62,19.18h.34v-19.18h4.73Z"/>
        <path class="cls-6" d="M129.48,76.66v5.45h8.29v4.04h-8.29v5.58h10.34v4.11h-15.07v-23.29h15.07v4.11h-10.34Z"/>
        <path class="cls-6" d="M147.87,76.73h-6.23v-4.18h17.12v4.18h-6.16v19.11h-4.73v-19.11Z"/>
        <path class="cls-6" d="M159.86,72.55h4.97l2.88,19.25h.51l4.18-19.25h5.48l4.18,19.25h.51l2.88-19.25h4.97l-4.45,23.29h-7.16l-3.66-17.71-3.67,17.71h-7.16l-4.45-23.29Z"/>
        <path class="cls-6" d="M196.57,94.98c-1.42-.85-2.44-2.14-3.06-3.89s-.94-4.01-.94-6.8,.31-5.1,.94-6.87,1.65-3.09,3.06-3.97c1.42-.88,3.3-1.32,5.65-1.32s4.24,.44,5.65,1.32,2.44,2.2,3.07,3.97c.63,1.77,.94,4.06,.94,6.87s-.3,4.98-.91,6.71c-.61,1.73-1.62,3.04-3.03,3.92s-3.32,1.32-5.72,1.32-4.24-.42-5.65-1.27Zm8.54-3.61c.7-.51,1.19-1.33,1.47-2.47,.29-1.13,.43-2.66,.43-4.61s-.15-3.49-.45-4.64c-.3-1.15-.79-2.01-1.49-2.57s-1.65-.84-2.86-.84-2.16,.28-2.86,.84-1.19,1.42-1.49,2.57c-.3,1.15-.45,2.7-.45,4.64,0,1.8,.13,3.27,.38,4.38s.73,1.97,1.42,2.57c.7,.59,1.69,.89,3,.89,1.23,0,2.2-.26,2.89-.77Z"/>
        <path class="cls-6" d="M215.92,72.55h9.04c5.48,0,8.22,2.56,8.22,7.67,0,3.04-1.14,5.27-3.42,6.71l3.32,8.9h-5.17l-2.71-7.81h-4.55v7.81h-4.73v-23.29Zm9.11,11.44c1.07,0,1.89-.34,2.47-1.01,.57-.67,.86-1.58,.86-2.72s-.3-2.04-.89-2.69c-.59-.65-1.43-.98-2.5-.98h-4.31v7.4h4.38Z"/>
        <path class="cls-6" d="M245.03,86.52l-3.15,.31v9.01h-4.73v-23.29h4.73v10.17l3.18-.31,3.8-9.86h5.38l-5.07,11.64,5.21,11.64h-5.45l-3.9-9.32Z"/>
      </g>
    </g>
  </g>
</svg>