<svg xmlns="http://www.w3.org/2000/svg" version="1.1" xmlns:xlink="http://www.w3.org/1999/xlink" width="62" height="62" x="0" y="0" viewBox="0 0 512 512" style="enable-background:new 0 0 512 512" xml:space="preserve" class=""><g><path d="M353.057 500H146.944C121.059 500 100 478.941 100 453.057V56.944C100 31.059 121.059 10 146.944 10h206.113C378.941 10 400 31.059 400 56.944v396.113C400 478.941 378.941 500 353.057 500zM146.944 30C132.087 30 120 42.087 120 56.944v396.113C120 467.913 132.087 480 146.944 480h206.113C367.913 480 380 467.913 380 453.057V56.944C380 42.087 367.913 30 353.057 30z" fill="#FFFFFF" opacity="1" data-original="#000000"></path><path d="M390 90H110c-5.523 0-10-4.477-10-10s4.477-10 10-10h280c5.522 0 10 4.477 10 10s-4.478 10-10 10zM390 440H110c-5.523 0-10-4.478-10-10s4.477-10 10-10h280c5.522 0 10 4.478 10 10s-4.478 10-10 10zM170 180a9.966 9.966 0 0 1-7.071-2.929l-20-20c-3.905-3.905-3.905-10.237 0-14.143l20-20c3.905-3.905 10.237-3.905 14.143 0s3.905 10.237 0 14.143L164.142 150l12.929 12.929c3.905 3.905 3.905 10.237 0 14.143A9.97 9.97 0 0 1 170 180zM260 180a9.965 9.965 0 0 1-7.071-2.929c-3.905-3.905-3.905-10.237 0-14.143L265.857 150l-12.929-12.929c-3.905-3.905-3.905-10.237 0-14.143s10.236-3.905 14.143 0l20 20c3.905 3.905 3.905 10.237 0 14.143l-20 20A9.966 9.966 0 0 1 260 180zM199.992 190.002a9.953 9.953 0 0 1-4.464-1.058c-4.94-2.47-6.942-8.477-4.472-13.417l30-60c2.469-4.939 8.476-6.942 13.417-4.472 4.94 2.47 6.942 8.477 4.472 13.417l-30 60a10.003 10.003 0 0 1-8.953 5.53zM280 250H160c-5.523 0-10-4.477-10-10s4.477-10 10-10h120c5.522 0 10 4.477 10 10s-4.478 10-10 10zM280 290H160c-5.523 0-10-4.478-10-10s4.477-10 10-10h120c5.522 0 10 4.478 10 10s-4.478 10-10 10zM340 330H160c-5.523 0-10-4.478-10-10s4.477-10 10-10h180c5.522 0 10 4.478 10 10s-4.478 10-10 10zM340 370H160c-5.523 0-10-4.478-10-10s4.477-10 10-10h180c5.522 0 10 4.478 10 10s-4.478 10-10 10z" fill="#FFFFFF" opacity="1" data-original="#000000"></path><circle cx="475" cy="75" r="15" fill="#FFFFFF" opacity="1" data-original="#000000"></circle><circle cx="45" cy="395" r="15" fill="#FFFFFF" opacity="1" data-original="#000000"></circle><circle cx="20" cy="200" r="10" fill="#FFFFFF" opacity="1" data-original="#000000"></circle><circle cx="450" cy="210" r="10" fill="#FFFFFF" opacity="1" data-original="#000000"></circle><circle cx="70" cy="90" r="10" fill="#FFFFFF" opacity="1" data-original="#000000"></circle><circle cx="460" cy="420" r="10" fill="#FFFFFF" opacity="1" data-original="#000000"></circle></g></svg>