<svg xmlns="http://www.w3.org/2000/svg" version="1.1" xmlns:xlink="http://www.w3.org/1999/xlink" width="62" height="62" x="0" y="0" viewBox="0 0 510 510" style="enable-background:new 0 0 512 512" xml:space="preserve" fill-rule="evenodd" class=""><g><path d="M144.124 445.808c12.068 3.474 20.907 14.605 20.907 27.785 0 15.954-12.953 28.907-28.907 28.907s-28.907-12.953-28.907-28.907c0-13.18 8.839-24.311 20.907-27.785v-69.01a8 8 0 0 1 2.343-5.657l29.821-29.82-.713-.713 8.552-19.305a100.773 100.773 0 0 1-12.309-29.703l-19.694-7.579v-32.165l19.694-7.58c2.494-10.527 6.672-20.536 12.309-29.735l-8.552-19.305 22.739-22.739 19.305 8.584c9.167-5.668 19.208-9.815 29.703-12.341l7.58-19.694h32.164l7.58 19.694a101.925 101.925 0 0 1 29.735 12.341l19.305-8.584 22.739 22.739-8.584 19.305a101.129 101.129 0 0 1 12.309 29.703l19.726 7.612v32.165L354.15 291.6a101.129 101.129 0 0 1-12.309 29.703l8.584 19.305-.713.713 29.821 29.82a8 8 0 0 1 2.343 5.657v69.01c12.068 3.474 20.907 14.605 20.907 27.785 0 15.954-12.953 28.907-28.907 28.907s-28.907-12.953-28.907-28.907c0-13.18 8.839-24.311 20.907-27.785v-65.696l-27.477-27.478-10.713 10.713-19.305-8.552a100.958 100.958 0 0 1-29.735 12.309l-7.58 19.694H263v59.01c12.068 3.474 20.907 14.605 20.907 27.785 0 15.954-12.953 28.907-28.907 28.907s-28.907-12.953-28.907-28.907c0-13.18 8.839-24.311 20.907-27.785v-59.01h-8.098l-7.58-19.694c-10.495-2.494-20.504-6.672-29.703-12.309l-19.305 8.552-10.713-10.713-27.477 27.478zm166.978-177.886c0-30.998-25.104-56.102-56.102-56.102s-56.134 25.104-56.134 56.102 25.136 56.134 56.134 56.134 56.102-25.136 56.102-56.134zm71.78 29.324a16.001 16.001 0 0 0 6.994-13.225v-32.165a15.999 15.999 0 0 0-10.24-14.927l-12.228-4.719a117.095 117.095 0 0 0-7.676-18.526l5.313-11.948a16 16 0 0 0-3.307-17.814L339 161.184a16 16 0 0 0-17.814-3.307l-11.948 5.313a117.696 117.696 0 0 0-18.545-7.692l-4.695-12.199a16 16 0 0 0-14.932-10.253h-32.164a16.001 16.001 0 0 0-14.933 10.253l-4.697 12.204a117.776 117.776 0 0 0-18.517 7.684l-11.941-5.31A16 16 0 0 0 171 161.184l-22.738 22.738a16 16 0 0 0-3.316 17.794l5.302 11.97a117.832 117.832 0 0 0-7.688 18.549l-12.183 4.689a16 16 0 0 0-10.253 14.932v32.165c0 5.37 2.683 10.29 6.994 13.225H95.132C51.055 297.246 15 261.191 15 217.142c0-33.419 20.749-62.218 49.973-74.208a126.994 126.994 0 0 1-.199-7.37C64.774 64.843 122.089 7.5 192.81 7.5c34.582 0 65.988 13.719 89.033 36.027 12.189-4.365 25.312-6.746 39.003-6.746 59.61 0 108.648 45.097 114.912 103.035 34.78 9.439 59.242 41.243 59.242 77.326 0 44.049-36.055 80.104-80.132 80.104z" fill="#FFFFFF" opacity="1" data-original="#000000" class=""></path></g></svg>