<svg xmlns="http://www.w3.org/2000/svg" version="1.1" xmlns:xlink="http://www.w3.org/1999/xlink" width="62" height="62" x="0" y="0" viewBox="0 0 500 500" style="enable-background:new 0 0 512 512" xml:space="preserve" class=""><g><path fill-rule="evenodd" d="M382.328 346.856c12.561-7.258 27.718 3.783 24.317 17.212-1.097 4.159-3.696 7.624-7.45 9.761-4.101 2.426-10.108 6.065-17.039 10.224-17.963 10.802-45.051 27.148-69.483 40.26-36.907 19.754-49.441 22.296-53.6 22.065-36.799-2.081-74.45-8.972-111.359-3.463l-.002-68.213c8.606-.52 18.714-1.444 28.937-3.697 6.168-1.353 18.9-7.284 31.016-13.228 24.67-12.102 27.149-10.918 48.228-6.297 11.438 2.507 45.383 8.813 45.514 20.099.058 2.483-.52 4.852-1.733 6.989a6.463 6.463 0 0 0-1.155 1.04c-3.177 3.581-7.971 5.487-12.822 5.083l-59.78-4.793c-3.812-.289-7.104 2.484-7.393 6.296-.347 3.754 2.484 7.046 6.296 7.335l59.78 4.85c.809.058 1.56.058 2.368.058a29.428 29.428 0 0 0 20.042-7.913zM185.827 101.618c-.001-35.348 28.82-64.113 64.169-64.114 35.348-.001 64.17 28.762 64.171 64.111.001 35.406-28.82 64.17-64.168 64.171-35.349.001-64.171-28.762-64.172-64.168zm-51.801 360.184c0 .347-.346.693-.751.693l-23.334.001c-.346 0-.693-.346-.693-.693l-.002-99.229c0-.404.347-.751.693-.751l23.334-.001c.404 0 .751.346.751.751zM112.478 289.74c-35.348.001-64.171-28.762-64.171-64.168-.001-35.348 28.82-64.113 64.168-64.114s64.171 28.762 64.171 64.11c.001 35.406-28.82 64.171-64.168 64.172zm210.876-64.175c-.001-35.348 28.82-64.113 64.168-64.114 35.406-.001 64.171 28.762 64.172 64.11.001 35.406-28.762 64.171-64.168 64.171-35.349.002-64.172-28.761-64.172-64.167zm12.823 58.509c13.747 12.014 31.71 19.348 51.348 19.348 42.915-.001 77.858-34.888 77.857-77.861-.001-42.915-34.946-77.858-77.861-77.857s-77.858 34.946-77.857 77.86c0 18.367 6.412 35.233 17.04 48.575l-29.918 28.591a6.898 6.898 0 0 0-2.137 4.967l.001 40.316c-9.376-4.102-21.226-6.739-30.208-8.721l-7.567-1.675-.004-158.432c39.738-3.467 70.985-36.91 70.984-77.572-.001-42.915-34.946-77.858-77.86-77.857-42.915.001-77.858 34.946-77.857 77.861.001 40.662 31.249 74.103 70.987 77.568l.004 155.891c-12.534-1.732-19.927.232-37.774 8.607l-.001-35.984c0-1.906-.751-3.697-2.137-4.967l-29.977-28.59c10.685-13.343 17.096-30.208 17.095-48.576-.001-42.915-34.946-77.858-77.86-77.857-42.972.001-77.858 34.946-77.857 77.86.001 42.972 34.888 77.858 77.861 77.857 19.638 0 37.601-7.336 51.347-19.35l27.782 26.568.001 39.565c-7.451 3.523-14.439 6.643-17.905 7.394-9.068 2.022-18.194 2.888-26.107 3.351-.751-7.22-6.874-12.822-14.325-12.822l-23.334.001c-7.913 0-14.382 6.469-14.382 14.44l.002 99.229c0 7.971 6.469 14.439 14.382 14.439l23.334-.001c7.971 0 14.44-6.469 14.44-14.44v-4.967c25.134-4.239 49.901-1.91 77.801.633 10.57.924 21.486 1.963 32.749 2.598 22.301.628 78.725-32.855 130.937-64.289 6.931-4.159 12.88-7.74 16.865-10.05 14.274-8.267 19.058-26.446 10.453-40.547-8.433-13.862-26.916-18.424-41.067-10.164l-60.357 35.003c-.405-5.487-2.946-9.935-6.7-13.516l-.001-45.86zm-223.7-29.914c14.093-7.509 29.225-25.414 29.225-39.623 0-12.831-16.008-18.415-24.086-9.067-2.714 3.141-7.505 3.177-10.281 0-8.17-9.351-24.085-3.761-24.085 9.069.001 14.208 15.134 32.113 29.227 39.621zm15.478-67.058c-5.545 0-10.974 1.675-15.479 4.794-17.785-12.311-42.972.354-42.972 22.642.001 21.429 20.794 44.994 40.201 53.541 1.698.77 3.819.783 5.545 0 19.407-8.549 40.199-32.115 40.199-53.543-.001-15.132-12.361-27.434-27.494-27.434zM236.54 125.24l40.893-23.624-40.894-23.565zm61.454-23.625c0-2.426-1.328-4.679-3.408-5.949L233.13 60.204c-4.575-2.618-10.281.657-10.281 5.949l.002 70.985c0 5.29 5.74 8.516 10.281 5.891l61.454-35.465a6.885 6.885 0 0 0 3.408-5.949zm67.466 114.418.001 36.85 38.467-.001c10.166 0 18.425-8.26 18.425-18.426s-8.26-18.425-18.426-18.425h-8.433a6.854 6.854 0 0 1-6.874-6.873V192.35c0-2.368-1.964-4.39-4.39-4.389-2.368 0-4.332 2.022-4.332 4.39v16.808c0 3.812-3.119 6.873-6.873 6.873zm-6.873 50.539 45.341-.001c17.732 0 32.113-14.383 32.113-32.115s-14.383-32.114-32.115-32.113h-1.559v-9.992c0-9.992-8.145-18.078-18.137-18.078-9.934 0-18.078 8.087-18.078 18.079v9.992h-7.566c-3.812 0-6.873 3.061-6.873 6.816l.001 50.597c0 3.754 3.061 6.816 6.873 6.815z" clip-rule="evenodd" fill="#FFFFFF" opacity="1" data-original="#000000"></path></g></svg>